<svg width="640" height="480" version="1.1"><circle fill="black" stroke="none" cx="223.8518204911092" cy="0" r="5.329805249788315"></circle><circle fill="black" stroke="none" cx="234.51143099068585" cy="0" r="5.329805249788315"></circle><circle fill="black" stroke="none" cx="245.1710414902625" cy="0" r="5.329805249788315"></circle><circle fill="black" stroke="none" cx="255.8306519898391" cy="0" r="5.329805249788315"></circle><circle fill="black" stroke="none" cx="501.0016934801016" cy="0" r="5.329805249788315"></circle><circle fill="black" stroke="none" cx="223.8518204911092" cy="10.65961049957663" r="5.329805249788315"></circle><circle fill="black" stroke="none" cx="234.51143099068585" cy="10.65961049957663" r="5.329805249788315"></circle><circle fill="black" stroke="none" cx="245.1710414902625" cy="10.65961049957663" r="5.329805249788315"></circle><circle fill="black" stroke="none" cx="255.8306519898391" cy="10.65961049957663" r="5.329805249788315"></circle><circle fill="black" stroke="none" cx="479.6824724809483" cy="10.65961049957663" r="5.329805249788315"></circle><circle fill="black" stroke="none" cx="223.8518204911092" cy="21.31922099915326" r="5.329805249788315"></circle><circle fill="black" stroke="none" cx="234.51143099068585" cy="21.31922099915326" r="5.329805249788315"></circle><circle fill="black" stroke="none" cx="245.1710414902625" cy="21.31922099915326" r="5.329805249788315"></circle><circle fill="black" stroke="none" cx="255.8306519898391" cy="21.31922099915326" r="5.329805249788315"></circle><circle fill="black" stroke="none" cx="266.4902624894157" cy="21.31922099915326" r="5.329805249788315"></circle><circle fill="black" stroke="none" cx="234.51143099068585" cy="31.97883149872989" r="5.329805249788315"></circle><circle fill="black" stroke="none" cx="245.1710414902625" cy="31.97883149872989" r="5.329805249788315"></circle><circle fill="black" stroke="none" cx="255.8306519898391" cy="31.97883149872989" r="5.329805249788315"></circle><circle fill="black" stroke="none" cx="266.4902624894157" cy="31.97883149872989" r="5.329805249788315"></circle><circle fill="black" stroke="none" cx="234.51143099068585" cy="42.63844199830652" r="5.329805249788315"></circle><circle fill="black" stroke="none" cx="245.1710414902625" cy="42.63844199830652" r="5.329805249788315"></circle><circle fill="black" stroke="none" cx="255.8306519898391" cy="42.63844199830652" r="5.329805249788315"></circle><circle fill="black" stroke="none" cx="266.4902624894157" cy="42.63844199830652" r="5.329805249788315"></circle><circle fill="black" stroke="none" cx="234.51143099068585" cy="53.29805249788315" r="5.329805249788315"></circle><circle fill="black" stroke="none" cx="245.1710414902625" cy="53.29805249788315" r="5.329805249788315"></circle><circle fill="black" stroke="none" cx="255.8306519898391" cy="53.29805249788315" r="5.329805249788315"></circle><circle fill="black" stroke="none" cx="266.4902624894157" cy="53.29805249788315" r="5.329805249788315"></circle><circle fill="black" stroke="none" cx="234.51143099068585" cy="63.95766299745978" r="5.329805249788315"></circle><circle fill="black" stroke="none" cx="245.1710414902625" cy="63.95766299745978" r="5.329805249788315"></circle><circle fill="black" stroke="none" cx="255.8306519898391" cy="63.95766299745978" r="5.329805249788315"></circle><circle fill="black" stroke="none" cx="266.4902624894157" cy="63.95766299745978" r="5.329805249788315"></circle><circle fill="black" stroke="none" cx="234.51143099068585" cy="74.61727349703641" r="5.329805249788315"></circle><circle fill="black" stroke="none" cx="245.1710414902625" cy="74.61727349703641" r="5.329805249788315"></circle><circle fill="black" stroke="none" cx="255.8306519898391" cy="74.61727349703641" r="5.329805249788315"></circle><circle fill="black" stroke="none" cx="266.4902624894157" cy="74.61727349703641" r="5.329805249788315"></circle><circle fill="black" stroke="none" cx="245.1710414902625" cy="85.27688399661304" r="5.329805249788315"></circle><circle fill="black" stroke="none" cx="255.8306519898391" cy="85.27688399661304" r="5.329805249788315"></circle><circle fill="black" stroke="none" cx="266.4902624894157" cy="85.27688399661304" r="5.329805249788315"></circle><circle fill="black" stroke="none" cx="245.1710414902625" cy="95.93649449618967" r="5.329805249788315"></circle><circle fill="black" stroke="none" cx="255.8306519898391" cy="95.93649449618967" r="5.329805249788315"></circle><circle fill="black" stroke="none" cx="266.4902624894157" cy="95.93649449618967" r="5.329805249788315"></circle><circle fill="black" stroke="none" cx="277.14987298899234" cy="95.93649449618967" r="5.329805249788315"></circle><circle fill="black" stroke="none" cx="245.1710414902625" cy="106.5961049957663" r="5.329805249788315"></circle><circle fill="black" stroke="none" cx="255.8306519898391" cy="106.5961049957663" r="5.329805249788315"></circle><circle fill="black" stroke="none" cx="266.4902624894157" cy="106.5961049957663" r="5.329805249788315"></circle><circle fill="black" stroke="none" cx="277.14987298899234" cy="106.5961049957663" r="5.329805249788315"></circle><circle fill="black" stroke="none" cx="245.1710414902625" cy="117.25571549534293" r="5.329805249788315"></circle><circle fill="black" stroke="none" cx="255.8306519898391" cy="117.25571549534293" r="5.329805249788315"></circle><circle fill="black" stroke="none" cx="266.4902624894157" cy="117.25571549534293" r="5.329805249788315"></circle><circle fill="black" stroke="none" cx="277.14987298899234" cy="117.25571549534293" r="5.329805249788315"></circle><circle fill="black" stroke="none" cx="245.1710414902625" cy="127.91532599491956" r="5.329805249788315"></circle><circle fill="black" stroke="none" cx="255.8306519898391" cy="127.91532599491956" r="5.329805249788315"></circle><circle fill="black" stroke="none" cx="266.4902624894157" cy="127.91532599491956" r="5.329805249788315"></circle><circle fill="black" stroke="none" cx="277.14987298899234" cy="127.91532599491956" r="5.329805249788315"></circle><circle fill="black" stroke="none" cx="255.8306519898391" cy="138.57493649449617" r="5.329805249788315"></circle><circle fill="black" stroke="none" cx="266.4902624894157" cy="138.57493649449617" r="5.329805249788315"></circle><circle fill="black" stroke="none" cx="277.14987298899234" cy="138.57493649449617" r="5.329805249788315"></circle><circle fill="black" stroke="none" cx="255.8306519898391" cy="149.23454699407282" r="5.329805249788315"></circle><circle fill="black" stroke="none" cx="266.4902624894157" cy="149.23454699407282" r="5.329805249788315"></circle><circle fill="black" stroke="none" cx="277.14987298899234" cy="149.23454699407282" r="5.329805249788315"></circle><circle fill="black" stroke="none" cx="255.8306519898391" cy="159.89415749364946" r="5.329805249788315"></circle><circle fill="black" stroke="none" cx="266.4902624894157" cy="159.89415749364946" r="5.329805249788315"></circle><circle fill="black" stroke="none" cx="277.14987298899234" cy="159.89415749364946" r="5.329805249788315"></circle><circle fill="black" stroke="none" cx="255.8306519898391" cy="170.55376799322607" r="5.329805249788315"></circle><circle fill="black" stroke="none" cx="266.4902624894157" cy="170.55376799322607" r="5.329805249788315"></circle><circle fill="black" stroke="none" cx="277.14987298899234" cy="170.55376799322607" r="5.329805249788315"></circle><circle fill="black" stroke="none" cx="287.809483488569" cy="170.55376799322607" r="5.329805249788315"></circle><circle fill="black" stroke="none" cx="341.10753598645215" cy="170.55376799322607" r="5.329805249788315"></circle><circle fill="black" stroke="none" cx="351.76714648602876" cy="170.55376799322607" r="5.329805249788315"></circle><circle fill="black" stroke="none" cx="362.4267569856054" cy="170.55376799322607" r="5.329805249788315"></circle><circle fill="black" stroke="none" cx="373.08636748518205" cy="170.55376799322607" r="5.329805249788315"></circle><circle fill="black" stroke="none" cx="383.74597798475867" cy="170.55376799322607" r="5.329805249788315"></circle><circle fill="black" stroke="none" cx="0" cy="181.2133784928027" r="5.329805249788315"></circle><circle fill="black" stroke="none" cx="255.8306519898391" cy="181.2133784928027" r="5.329805249788315"></circle><circle fill="black" stroke="none" cx="266.4902624894157" cy="181.2133784928027" r="5.329805249788315"></circle><circle fill="black" stroke="none" cx="277.14987298899234" cy="181.2133784928027" r="5.329805249788315"></circle><circle fill="black" stroke="none" cx="287.809483488569" cy="181.2133784928027" r="5.329805249788315"></circle><circle fill="black" stroke="none" cx="319.7883149872989" cy="181.2133784928027" r="5.329805249788315"></circle><circle fill="black" stroke="none" cx="330.44792548687553" cy="181.2133784928027" r="5.329805249788315"></circle><circle fill="black" stroke="none" cx="341.10753598645215" cy="181.2133784928027" r="5.329805249788315"></circle><circle fill="black" stroke="none" cx="351.76714648602876" cy="181.2133784928027" r="5.329805249788315"></circle><circle fill="black" stroke="none" cx="362.4267569856054" cy="181.2133784928027" r="5.329805249788315"></circle><circle fill="black" stroke="none" cx="373.08636748518205" cy="181.2133784928027" r="5.329805249788315"></circle><circle fill="black" stroke="none" cx="383.74597798475867" cy="181.2133784928027" r="5.329805249788315"></circle><circle fill="black" stroke="none" cx="394.4055884843353" cy="181.2133784928027" r="5.329805249788315"></circle><circle fill="black" stroke="none" cx="266.4902624894157" cy="191.87298899237933" r="5.329805249788315"></circle><circle fill="black" stroke="none" cx="277.14987298899234" cy="191.87298899237933" r="5.329805249788315"></circle><circle fill="black" stroke="none" cx="287.809483488569" cy="191.87298899237933" r="5.329805249788315"></circle><circle fill="black" stroke="none" cx="309.12870448772225" cy="191.87298899237933" r="5.329805249788315"></circle><circle fill="black" stroke="none" cx="383.74597798475867" cy="191.87298899237933" r="5.329805249788315"></circle><circle fill="black" stroke="none" cx="394.4055884843353" cy="191.87298899237933" r="5.329805249788315"></circle><circle fill="black" stroke="none" cx="405.06519898391196" cy="191.87298899237933" r="5.329805249788315"></circle><circle fill="black" stroke="none" cx="266.4902624894157" cy="202.53259949195598" r="5.329805249788315"></circle><circle fill="black" stroke="none" cx="277.14987298899234" cy="202.53259949195598" r="5.329805249788315"></circle><circle fill="black" stroke="none" cx="287.809483488569" cy="202.53259949195598" r="5.329805249788315"></circle><circle fill="black" stroke="none" cx="405.06519898391196" cy="202.53259949195598" r="5.329805249788315"></circle><circle fill="black" stroke="none" cx="415.72480948348857" cy="202.53259949195598" r="5.329805249788315"></circle><circle fill="black" stroke="none" cx="266.4902624894157" cy="213.1922099915326" r="5.329805249788315"></circle><circle fill="black" stroke="none" cx="277.14987298899234" cy="213.1922099915326" r="5.329805249788315"></circle><circle fill="black" stroke="none" cx="287.809483488569" cy="213.1922099915326" r="5.329805249788315"></circle><circle fill="black" stroke="none" cx="405.06519898391196" cy="213.1922099915326" r="5.329805249788315"></circle><circle fill="black" stroke="none" cx="415.72480948348857" cy="213.1922099915326" r="5.329805249788315"></circle><circle fill="black" stroke="none" cx="426.3844199830652" cy="213.1922099915326" r="5.329805249788315"></circle><circle fill="black" stroke="none" cx="21.31922099915326" cy="223.8518204911092" r="5.329805249788315"></circle><circle fill="black" stroke="none" cx="266.4902624894157" cy="223.8518204911092" r="5.329805249788315"></circle><circle fill="black" stroke="none" cx="277.14987298899234" cy="223.8518204911092" r="5.329805249788315"></circle><circle fill="black" stroke="none" cx="287.809483488569" cy="223.8518204911092" r="5.329805249788315"></circle><circle fill="black" stroke="none" cx="415.72480948348857" cy="223.8518204911092" r="5.329805249788315"></circle><circle fill="black" stroke="none" cx="426.3844199830652" cy="223.8518204911092" r="5.329805249788315"></circle><circle fill="black" stroke="none" cx="31.97883149872989" cy="234.51143099068585" r="5.329805249788315"></circle><circle fill="black" stroke="none" cx="266.4902624894157" cy="234.51143099068585" r="5.329805249788315"></circle><circle fill="black" stroke="none" cx="277.14987298899234" cy="234.51143099068585" r="5.329805249788315"></circle><circle fill="black" stroke="none" cx="287.809483488569" cy="234.51143099068585" r="5.329805249788315"></circle><circle fill="black" stroke="none" cx="415.72480948348857" cy="234.51143099068585" r="5.329805249788315"></circle><circle fill="black" stroke="none" cx="426.3844199830652" cy="234.51143099068585" r="5.329805249788315"></circle><circle fill="black" stroke="none" cx="437.0440304826418" cy="234.51143099068585" r="5.329805249788315"></circle><circle fill="black" stroke="none" cx="277.14987298899234" cy="245.1710414902625" r="5.329805249788315"></circle><circle fill="black" stroke="none" cx="287.809483488569" cy="245.1710414902625" r="5.329805249788315"></circle><circle fill="black" stroke="none" cx="319.7883149872989" cy="245.1710414902625" r="5.329805249788315"></circle><circle fill="black" stroke="none" cx="330.44792548687553" cy="245.1710414902625" r="5.329805249788315"></circle><circle fill="black" stroke="none" cx="341.10753598645215" cy="245.1710414902625" r="5.329805249788315"></circle><circle fill="black" stroke="none" cx="383.74597798475867" cy="245.1710414902625" r="5.329805249788315"></circle><circle fill="black" stroke="none" cx="394.4055884843353" cy="245.1710414902625" r="5.329805249788315"></circle><circle fill="black" stroke="none" cx="405.06519898391196" cy="245.1710414902625" r="5.329805249788315"></circle><circle fill="black" stroke="none" cx="415.72480948348857" cy="245.1710414902625" r="5.329805249788315"></circle><circle fill="black" stroke="none" cx="426.3844199830652" cy="245.1710414902625" r="5.329805249788315"></circle><circle fill="black" stroke="none" cx="437.0440304826418" cy="245.1710414902625" r="5.329805249788315"></circle><circle fill="black" stroke="none" cx="42.63844199830652" cy="255.8306519898391" r="5.329805249788315"></circle><circle fill="black" stroke="none" cx="277.14987298899234" cy="255.8306519898391" r="5.329805249788315"></circle><circle fill="black" stroke="none" cx="287.809483488569" cy="255.8306519898391" r="5.329805249788315"></circle><circle fill="black" stroke="none" cx="341.10753598645215" cy="255.8306519898391" r="5.329805249788315"></circle><circle fill="black" stroke="none" cx="394.4055884843353" cy="255.8306519898391" r="5.329805249788315"></circle><circle fill="black" stroke="none" cx="405.06519898391196" cy="255.8306519898391" r="5.329805249788315"></circle><circle fill="black" stroke="none" cx="415.72480948348857" cy="255.8306519898391" r="5.329805249788315"></circle><circle fill="black" stroke="none" cx="426.3844199830652" cy="255.8306519898391" r="5.329805249788315"></circle><circle fill="black" stroke="none" cx="437.0440304826418" cy="255.8306519898391" r="5.329805249788315"></circle><circle fill="black" stroke="none" cx="309.12870448772225" cy="266.4902624894157" r="5.329805249788315"></circle><circle fill="black" stroke="none" cx="319.7883149872989" cy="266.4902624894157" r="5.329805249788315"></circle><circle fill="black" stroke="none" cx="330.44792548687553" cy="266.4902624894157" r="5.329805249788315"></circle><circle fill="black" stroke="none" cx="341.10753598645215" cy="266.4902624894157" r="5.329805249788315"></circle><circle fill="black" stroke="none" cx="351.76714648602876" cy="266.4902624894157" r="5.329805249788315"></circle><circle fill="black" stroke="none" cx="373.08636748518205" cy="266.4902624894157" r="5.329805249788315"></circle><circle fill="black" stroke="none" cx="383.74597798475867" cy="266.4902624894157" r="5.329805249788315"></circle><circle fill="black" stroke="none" cx="394.4055884843353" cy="266.4902624894157" r="5.329805249788315"></circle><circle fill="black" stroke="none" cx="405.06519898391196" cy="266.4902624894157" r="5.329805249788315"></circle><circle fill="black" stroke="none" cx="415.72480948348857" cy="266.4902624894157" r="5.329805249788315"></circle><circle fill="black" stroke="none" cx="426.3844199830652" cy="266.4902624894157" r="5.329805249788315"></circle><circle fill="black" stroke="none" cx="437.0440304826418" cy="266.4902624894157" r="5.329805249788315"></circle><circle fill="black" stroke="none" cx="53.29805249788315" cy="277.14987298899234" r="5.329805249788315"></circle><circle fill="black" stroke="none" cx="330.44792548687553" cy="277.14987298899234" r="5.329805249788315"></circle><circle fill="black" stroke="none" cx="341.10753598645215" cy="277.14987298899234" r="5.329805249788315"></circle><circle fill="black" stroke="none" cx="373.08636748518205" cy="277.14987298899234" r="5.329805249788315"></circle><circle fill="black" stroke="none" cx="383.74597798475867" cy="277.14987298899234" r="5.329805249788315"></circle><circle fill="black" stroke="none" cx="394.4055884843353" cy="277.14987298899234" r="5.329805249788315"></circle><circle fill="black" stroke="none" cx="405.06519898391196" cy="277.14987298899234" r="5.329805249788315"></circle><circle fill="black" stroke="none" cx="415.72480948348857" cy="277.14987298899234" r="5.329805249788315"></circle><circle fill="black" stroke="none" cx="426.3844199830652" cy="277.14987298899234" r="5.329805249788315"></circle><circle fill="black" stroke="none" cx="437.0440304826418" cy="277.14987298899234" r="5.329805249788315"></circle><circle fill="black" stroke="none" cx="63.95766299745978" cy="287.809483488569" r="5.329805249788315"></circle><circle fill="black" stroke="none" cx="373.08636748518205" cy="287.809483488569" r="5.329805249788315"></circle><circle fill="black" stroke="none" cx="426.3844199830652" cy="287.809483488569" r="5.329805249788315"></circle><circle fill="black" stroke="none" cx="437.0440304826418" cy="287.809483488569" r="5.329805249788315"></circle><circle fill="black" stroke="none" cx="383.74597798475867" cy="298.46909398814563" r="5.329805249788315"></circle><circle fill="black" stroke="none" cx="437.0440304826418" cy="298.46909398814563" r="5.329805249788315"></circle><circle fill="black" stroke="none" cx="74.61727349703641" cy="309.12870448772225" r="5.329805249788315"></circle><circle fill="black" stroke="none" cx="373.08636748518205" cy="309.12870448772225" r="5.329805249788315"></circle><circle fill="black" stroke="none" cx="426.3844199830652" cy="309.12870448772225" r="5.329805249788315"></circle><circle fill="black" stroke="none" cx="437.0440304826418" cy="309.12870448772225" r="5.329805249788315"></circle><circle fill="black" stroke="none" cx="362.4267569856054" cy="319.7883149872989" r="5.329805249788315"></circle><circle fill="black" stroke="none" cx="373.08636748518205" cy="319.7883149872989" r="5.329805249788315"></circle><circle fill="black" stroke="none" cx="383.74597798475867" cy="319.7883149872989" r="5.329805249788315"></circle><circle fill="black" stroke="none" cx="437.0440304826418" cy="319.7883149872989" r="5.329805249788315"></circle><circle fill="black" stroke="none" cx="341.10753598645215" cy="330.44792548687553" r="5.329805249788315"></circle><circle fill="black" stroke="none" cx="383.74597798475867" cy="330.44792548687553" r="5.329805249788315"></circle><circle fill="black" stroke="none" cx="394.4055884843353" cy="330.44792548687553" r="5.329805249788315"></circle><circle fill="black" stroke="none" cx="405.06519898391196" cy="330.44792548687553" r="5.329805249788315"></circle><circle fill="black" stroke="none" cx="426.3844199830652" cy="330.44792548687553" r="5.329805249788315"></circle><circle fill="black" stroke="none" cx="341.10753598645215" cy="341.10753598645215" r="5.329805249788315"></circle><circle fill="black" stroke="none" cx="351.76714648602876" cy="341.10753598645215" r="5.329805249788315"></circle><circle fill="black" stroke="none" cx="383.74597798475867" cy="341.10753598645215" r="5.329805249788315"></circle><circle fill="black" stroke="none" cx="394.4055884843353" cy="341.10753598645215" r="5.329805249788315"></circle><circle fill="black" stroke="none" cx="405.06519898391196" cy="341.10753598645215" r="5.329805249788315"></circle><circle fill="black" stroke="none" cx="415.72480948348857" cy="341.10753598645215" r="5.329805249788315"></circle><circle fill="black" stroke="none" cx="426.3844199830652" cy="341.10753598645215" r="5.329805249788315"></circle><circle fill="black" stroke="none" cx="309.12870448772225" cy="351.76714648602876" r="5.329805249788315"></circle><circle fill="black" stroke="none" cx="362.4267569856054" cy="351.76714648602876" r="5.329805249788315"></circle><circle fill="black" stroke="none" cx="373.08636748518205" cy="351.76714648602876" r="5.329805249788315"></circle><circle fill="black" stroke="none" cx="383.74597798475867" cy="351.76714648602876" r="5.329805249788315"></circle><circle fill="black" stroke="none" cx="405.06519898391196" cy="351.76714648602876" r="5.329805249788315"></circle><circle fill="black" stroke="none" cx="415.72480948348857" cy="351.76714648602876" r="5.329805249788315"></circle><circle fill="black" stroke="none" cx="330.44792548687553" cy="362.4267569856054" r="5.329805249788315"></circle><circle fill="black" stroke="none" cx="341.10753598645215" cy="362.4267569856054" r="5.329805249788315"></circle><circle fill="black" stroke="none" cx="362.4267569856054" cy="362.4267569856054" r="5.329805249788315"></circle><circle fill="black" stroke="none" cx="373.08636748518205" cy="362.4267569856054" r="5.329805249788315"></circle><circle fill="black" stroke="none" cx="383.74597798475867" cy="362.4267569856054" r="5.329805249788315"></circle><circle fill="black" stroke="none" cx="394.4055884843353" cy="362.4267569856054" r="5.329805249788315"></circle><circle fill="black" stroke="none" cx="405.06519898391196" cy="362.4267569856054" r="5.329805249788315"></circle><circle fill="black" stroke="none" cx="415.72480948348857" cy="362.4267569856054" r="5.329805249788315"></circle><circle fill="black" stroke="none" cx="330.44792548687553" cy="373.08636748518205" r="5.329805249788315"></circle><circle fill="black" stroke="none" cx="341.10753598645215" cy="373.08636748518205" r="5.329805249788315"></circle><circle fill="black" stroke="none" cx="351.76714648602876" cy="373.08636748518205" r="5.329805249788315"></circle><circle fill="black" stroke="none" cx="362.4267569856054" cy="373.08636748518205" r="5.329805249788315"></circle><circle fill="black" stroke="none" cx="373.08636748518205" cy="373.08636748518205" r="5.329805249788315"></circle><circle fill="black" stroke="none" cx="383.74597798475867" cy="373.08636748518205" r="5.329805249788315"></circle><circle fill="black" stroke="none" cx="394.4055884843353" cy="373.08636748518205" r="5.329805249788315"></circle><circle fill="black" stroke="none" cx="405.06519898391196" cy="373.08636748518205" r="5.329805249788315"></circle><circle fill="black" stroke="none" cx="415.72480948348857" cy="373.08636748518205" r="5.329805249788315"></circle><circle fill="black" stroke="none" cx="341.10753598645215" cy="383.74597798475867" r="5.329805249788315"></circle><circle fill="black" stroke="none" cx="351.76714648602876" cy="383.74597798475867" r="5.329805249788315"></circle><circle fill="black" stroke="none" cx="362.4267569856054" cy="383.74597798475867" r="5.329805249788315"></circle><circle fill="black" stroke="none" cx="373.08636748518205" cy="383.74597798475867" r="5.329805249788315"></circle><circle fill="black" stroke="none" cx="383.74597798475867" cy="383.74597798475867" r="5.329805249788315"></circle><circle fill="black" stroke="none" cx="394.4055884843353" cy="383.74597798475867" r="5.329805249788315"></circle><circle fill="black" stroke="none" cx="405.06519898391196" cy="383.74597798475867" r="5.329805249788315"></circle><circle fill="black" stroke="none" cx="415.72480948348857" cy="383.74597798475867" r="5.329805249788315"></circle><circle fill="black" stroke="none" cx="351.76714648602876" cy="394.4055884843353" r="5.329805249788315"></circle><circle fill="black" stroke="none" cx="362.4267569856054" cy="394.4055884843353" r="5.329805249788315"></circle><circle fill="black" stroke="none" cx="373.08636748518205" cy="394.4055884843353" r="5.329805249788315"></circle><circle fill="black" stroke="none" cx="383.74597798475867" cy="394.4055884843353" r="5.329805249788315"></circle><circle fill="black" stroke="none" cx="394.4055884843353" cy="394.4055884843353" r="5.329805249788315"></circle><circle fill="black" stroke="none" cx="405.06519898391196" cy="394.4055884843353" r="5.329805249788315"></circle><circle fill="black" stroke="none" cx="415.72480948348857" cy="394.4055884843353" r="5.329805249788315"></circle><circle fill="black" stroke="none" cx="426.3844199830652" cy="394.4055884843353" r="5.329805249788315"></circle><circle fill="black" stroke="none" cx="437.0440304826418" cy="394.4055884843353" r="5.329805249788315"></circle><circle fill="black" stroke="none" cx="447.7036409822184" cy="394.4055884843353" r="5.329805249788315"></circle><circle fill="black" stroke="none" cx="383.74597798475867" cy="405.06519898391196" r="5.329805249788315"></circle><circle fill="black" stroke="none" cx="394.4055884843353" cy="405.06519898391196" r="5.329805249788315"></circle><circle fill="black" stroke="none" cx="405.06519898391196" cy="405.06519898391196" r="5.329805249788315"></circle><circle fill="black" stroke="none" cx="415.72480948348857" cy="405.06519898391196" r="5.329805249788315"></circle><circle fill="black" stroke="none" cx="426.3844199830652" cy="405.06519898391196" r="5.329805249788315"></circle><circle fill="black" stroke="none" cx="437.0440304826418" cy="405.06519898391196" r="5.329805249788315"></circle><circle fill="black" stroke="none" cx="458.3632514817951" cy="405.06519898391196" r="5.329805249788315"></circle><circle fill="black" stroke="none" cx="469.0228619813717" cy="405.06519898391196" r="5.329805249788315"></circle><circle fill="black" stroke="none" cx="479.6824724809483" cy="405.06519898391196" r="5.329805249788315"></circle><circle fill="black" stroke="none" cx="490.342082980525" cy="405.06519898391196" r="5.329805249788315"></circle><circle fill="black" stroke="none" cx="501.0016934801016" cy="405.06519898391196" r="5.329805249788315"></circle><circle fill="black" stroke="none" cx="511.6613039796782" cy="405.06519898391196" r="5.329805249788315"></circle><circle fill="black" stroke="none" cx="522.3209144792548" cy="405.06519898391196" r="5.329805249788315"></circle><circle fill="black" stroke="none" cx="319.7883149872989" cy="415.72480948348857" r="5.329805249788315"></circle><circle fill="black" stroke="none" cx="383.74597798475867" cy="415.72480948348857" r="5.329805249788315"></circle><circle fill="black" stroke="none" cx="394.4055884843353" cy="415.72480948348857" r="5.329805249788315"></circle><circle fill="black" stroke="none" cx="405.06519898391196" cy="415.72480948348857" r="5.329805249788315"></circle><circle fill="black" stroke="none" cx="415.72480948348857" cy="415.72480948348857" r="5.329805249788315"></circle><circle fill="black" stroke="none" cx="426.3844199830652" cy="415.72480948348857" r="5.329805249788315"></circle><circle fill="black" stroke="none" cx="458.3632514817951" cy="415.72480948348857" r="5.329805249788315"></circle><circle fill="black" stroke="none" cx="469.0228619813717" cy="415.72480948348857" r="5.329805249788315"></circle><circle fill="black" stroke="none" cx="479.6824724809483" cy="415.72480948348857" r="5.329805249788315"></circle><circle fill="black" stroke="none" cx="490.342082980525" cy="415.72480948348857" r="5.329805249788315"></circle><circle fill="black" stroke="none" cx="501.0016934801016" cy="415.72480948348857" r="5.329805249788315"></circle><circle fill="black" stroke="none" cx="511.6613039796782" cy="415.72480948348857" r="5.329805249788315"></circle><circle fill="black" stroke="none" cx="522.3209144792548" cy="415.72480948348857" r="5.329805249788315"></circle><circle fill="black" stroke="none" cx="532.9805249788315" cy="415.72480948348857" r="5.329805249788315"></circle><circle fill="black" stroke="none" cx="298.46909398814563" cy="426.3844199830652" r="5.329805249788315"></circle><circle fill="black" stroke="none" cx="383.74597798475867" cy="426.3844199830652" r="5.329805249788315"></circle><circle fill="black" stroke="none" cx="394.4055884843353" cy="426.3844199830652" r="5.329805249788315"></circle><circle fill="black" stroke="none" cx="405.06519898391196" cy="426.3844199830652" r="5.329805249788315"></circle><circle fill="black" stroke="none" cx="415.72480948348857" cy="426.3844199830652" r="5.329805249788315"></circle><circle fill="black" stroke="none" cx="426.3844199830652" cy="426.3844199830652" r="5.329805249788315"></circle><circle fill="black" stroke="none" cx="469.0228619813717" cy="426.3844199830652" r="5.329805249788315"></circle><circle fill="black" stroke="none" cx="479.6824724809483" cy="426.3844199830652" r="5.329805249788315"></circle><circle fill="black" stroke="none" cx="490.342082980525" cy="426.3844199830652" r="5.329805249788315"></circle><circle fill="black" stroke="none" cx="501.0016934801016" cy="426.3844199830652" r="5.329805249788315"></circle><circle fill="black" stroke="none" cx="511.6613039796782" cy="426.3844199830652" r="5.329805249788315"></circle><circle fill="black" stroke="none" cx="532.9805249788315" cy="426.3844199830652" r="5.329805249788315"></circle><circle fill="black" stroke="none" cx="373.08636748518205" cy="437.0440304826418" r="5.329805249788315"></circle><circle fill="black" stroke="none" cx="383.74597798475867" cy="437.0440304826418" r="5.329805249788315"></circle><circle fill="black" stroke="none" cx="394.4055884843353" cy="437.0440304826418" r="5.329805249788315"></circle><circle fill="black" stroke="none" cx="405.06519898391196" cy="437.0440304826418" r="5.329805249788315"></circle><circle fill="black" stroke="none" cx="415.72480948348857" cy="437.0440304826418" r="5.329805249788315"></circle><circle fill="black" stroke="none" cx="426.3844199830652" cy="437.0440304826418" r="5.329805249788315"></circle><circle fill="black" stroke="none" cx="469.0228619813717" cy="437.0440304826418" r="5.329805249788315"></circle><circle fill="black" stroke="none" cx="479.6824724809483" cy="437.0440304826418" r="5.329805249788315"></circle><circle fill="black" stroke="none" cx="490.342082980525" cy="437.0440304826418" r="5.329805249788315"></circle><circle fill="black" stroke="none" cx="501.0016934801016" cy="437.0440304826418" r="5.329805249788315"></circle><circle fill="black" stroke="none" cx="511.6613039796782" cy="437.0440304826418" r="5.329805249788315"></circle><circle fill="black" stroke="none" cx="522.3209144792548" cy="437.0440304826418" r="5.329805249788315"></circle><circle fill="black" stroke="none" cx="532.9805249788315" cy="437.0440304826418" r="5.329805249788315"></circle><circle fill="black" stroke="none" cx="543.6401354784081" cy="437.0440304826418" r="5.329805249788315"></circle><circle fill="black" stroke="none" cx="373.08636748518205" cy="447.7036409822184" r="5.329805249788315"></circle><circle fill="black" stroke="none" cx="383.74597798475867" cy="447.7036409822184" r="5.329805249788315"></circle><circle fill="black" stroke="none" cx="394.4055884843353" cy="447.7036409822184" r="5.329805249788315"></circle><circle fill="black" stroke="none" cx="405.06519898391196" cy="447.7036409822184" r="5.329805249788315"></circle><circle fill="black" stroke="none" cx="426.3844199830652" cy="447.7036409822184" r="5.329805249788315"></circle><circle fill="black" stroke="none" cx="469.0228619813717" cy="447.7036409822184" r="5.329805249788315"></circle><circle fill="black" stroke="none" cx="479.6824724809483" cy="447.7036409822184" r="5.329805249788315"></circle><circle fill="black" stroke="none" cx="490.342082980525" cy="447.7036409822184" r="5.329805249788315"></circle><circle fill="black" stroke="none" cx="501.0016934801016" cy="447.7036409822184" r="5.329805249788315"></circle><circle fill="black" stroke="none" cx="511.6613039796782" cy="447.7036409822184" r="5.329805249788315"></circle><circle fill="black" stroke="none" cx="543.6401354784081" cy="447.7036409822184" r="5.329805249788315"></circle><circle fill="black" stroke="none" cx="373.08636748518205" cy="458.3632514817951" r="5.329805249788315"></circle><circle fill="black" stroke="none" cx="383.74597798475867" cy="458.3632514817951" r="5.329805249788315"></circle><circle fill="black" stroke="none" cx="394.4055884843353" cy="458.3632514817951" r="5.329805249788315"></circle><circle fill="black" stroke="none" cx="405.06519898391196" cy="458.3632514817951" r="5.329805249788315"></circle><circle fill="black" stroke="none" cx="415.72480948348857" cy="458.3632514817951" r="5.329805249788315"></circle><circle fill="black" stroke="none" cx="426.3844199830652" cy="458.3632514817951" r="5.329805249788315"></circle><circle fill="black" stroke="none" cx="447.7036409822184" cy="458.3632514817951" r="5.329805249788315"></circle><circle fill="black" stroke="none" cx="469.0228619813717" cy="458.3632514817951" r="5.329805249788315"></circle><circle fill="black" stroke="none" cx="479.6824724809483" cy="458.3632514817951" r="5.329805249788315"></circle><circle fill="black" stroke="none" cx="490.342082980525" cy="458.3632514817951" r="5.329805249788315"></circle><circle fill="black" stroke="none" cx="501.0016934801016" cy="458.3632514817951" r="5.329805249788315"></circle><circle fill="black" stroke="none" cx="543.6401354784081" cy="458.3632514817951" r="5.329805249788315"></circle><circle fill="black" stroke="none" cx="394.4055884843353" cy="469.0228619813717" r="5.329805249788315"></circle><circle fill="black" stroke="none" cx="405.06519898391196" cy="469.0228619813717" r="5.329805249788315"></circle><circle fill="black" stroke="none" cx="415.72480948348857" cy="469.0228619813717" r="5.329805249788315"></circle><circle fill="black" stroke="none" cx="426.3844199830652" cy="469.0228619813717" r="5.329805249788315"></circle><circle fill="black" stroke="none" cx="469.0228619813717" cy="469.0228619813717" r="5.329805249788315"></circle><circle fill="black" stroke="none" cx="479.6824724809483" cy="469.0228619813717" r="5.329805249788315"></circle><circle fill="black" stroke="none" cx="490.342082980525" cy="469.0228619813717" r="5.329805249788315"></circle><circle fill="black" stroke="none" cx="501.0016934801016" cy="469.0228619813717" r="5.329805249788315"></circle><circle fill="black" stroke="none" cx="554.2997459779847" cy="469.0228619813717" r="5.329805249788315"></circle></svg>